<?xml version="1.0" encoding="UTF-8"?>
<svg version="1.1" xmlns="http://www.w3.org/2000/svg" width="500" height="500">
<path d="M0 0 C165 0 330 0 500 0 C500 165 500 330 500 500 C335 500 170 500 0 500 C0 335 0 170 0 0 Z " fill="#000000" transform="translate(0,0)"/>
<path d="M0 0 C92.07 0 184.14 0 279 0 C279 27.05460526 279 27.05460526 272.2109375 39.66796875 C268.65734798 46.52481665 265.64139448 53.57711493 262.61587524 60.6776123 C260.91843689 64.6560243 259.20211131 68.6262851 257.48828125 72.59765625 C257.13104477 73.42659393 256.77380829 74.25553162 256.40574646 75.10958862 C251.89953945 85.56302439 247.35455346 95.99960423 242.8125 106.4375 C241.1000917 110.37362454 239.38788027 114.30983468 237.67578125 118.24609375 C237.26642334 119.18722015 236.85706543 120.12834656 236.43530273 121.09799194 C233.11662608 128.72901094 229.80609816 136.3635234 226.5 144 C220.57450306 157.686256 214.62647961 171.36268596 208.67822266 185.0390625 C203.61127954 196.68945678 198.54795724 208.34136596 193.5 220 C191.66229722 224.24228188 189.82415213 228.48437181 187.98553467 232.72625732 C187.27377601 234.36836703 186.56207226 236.01050054 185.85040283 237.65264893 C183.20506909 243.75615744 180.55779503 249.85882012 177.90869141 255.96069336 C177.02355195 258.0001741 176.13893387 260.03988122 175.25488281 262.07983398 C174.00599004 264.96139885 172.75514915 267.84211122 171.50390625 270.72265625 C170.95610252 271.98832176 170.95610252 271.98832176 170.39723206 273.27955627 C167.36953773 280.24107178 164.18393469 287.10147483 161 294 C147.14 294 133.28 294 119 294 C110.96172593 276.77512699 110.96172593 276.77512699 108.01171875 270.0078125 C107.67126526 269.23101135 107.33081177 268.45421021 106.9800415 267.65386963 C105.88087107 265.14496793 104.78417225 262.63499455 103.6875 260.125 C102.90000569 258.32625375 102.11232246 256.5275902 101.32446289 254.72900391 C99.69283306 251.00388191 98.0620057 247.27841007 96.43164062 243.55273438 C94.09979043 238.225779 91.76190326 232.90149217 89.421875 227.578125 C81.73587264 210.09163828 74.07221118 192.595753 66.44747925 175.0824585 C60.98845086 162.54461526 55.50218884 150.0189587 50 137.5 C43.79429333 123.38034912 37.61467425 109.2496437 31.45883179 95.10818481 C24.66903784 79.51195859 17.84109668 63.93252197 10.97958374 48.3677063 C10.28173478 46.77648294 9.58944987 45.18280682 8.90298462 43.5866394 C7.4218328 40.1516819 5.90779037 36.82655634 4.14990234 33.52001953 C-1.99998401 21.48825884 0 15.65929587 0 0 Z " fill="#FCFCFC" transform="translate(110,110)"/>
<path d="M0 0 C63.69 0 127.38 0 193 0 C181.51490999 27.56421602 181.51490999 27.56421602 177.6171875 36.625 C177.16389069 37.68162842 176.71059387 38.73825684 176.24356079 39.8269043 C175.28310633 42.06533333 174.32211513 44.30353213 173.3605957 46.54150391 C171.82146365 50.12463368 170.28450575 53.70869226 168.74804688 57.29296875 C163.92069099 68.55216936 159.08536776 79.80786306 154.23129272 91.05557251 C143.19598862 116.62898458 132.30244461 142.22828763 122.10118103 168.14671326 C119.29831274 175.26338097 116.45895905 182.36519796 113.61328125 189.46484375 C113.15237091 190.61494934 112.69146057 191.76505493 112.21658325 192.95001221 C110.83206914 196.40424711 109.44729916 199.85837936 108.0625 203.3125 C106.34376757 207.59974734 104.62636569 211.88752337 102.91015625 216.17578125 C102.52869949 217.12686264 102.14724274 218.07794403 101.75422668 219.05784607 C101.40486557 219.93119095 101.05550446 220.80453583 100.69555664 221.7043457 C100.39073868 222.4652803 100.08592072 223.2262149 99.77186584 224.01020813 C99.13353776 225.65575319 98.55814705 227.32555886 98 229 C97.01 229 96.02 229 95 229 C94.58975586 227.98429932 94.17951172 226.96859863 93.75683594 225.92211914 C88.51389973 212.94429157 83.2594977 199.97112376 78 187 C77.59213257 185.99376587 77.18426514 184.98753174 76.76403809 183.95080566 C64.4292014 153.52454764 51.86071049 123.20768735 39 93 C38.54371216 91.9282251 38.08742432 90.8564502 37.61730957 89.75219727 C33.69452227 80.53926066 29.76971998 71.32718238 25.84332275 62.11578369 C19.74760623 47.8151106 13.65868755 33.51167649 7.61727905 19.18795776 C6.91916973 17.53302077 6.22046831 15.8783334 5.52114868 14.22390747 C4.57604717 11.98728711 3.63330323 9.74969014 2.69140625 7.51171875 C2.41451965 6.8572879 2.13763306 6.20285706 1.85235596 5.52859497 C0 1.11488305 0 1.11488305 0 0 Z " fill="#000000" transform="translate(153,142)"/>
</svg>
